<?xml version="1.0" standalone="no"?>
<!DOCTYPE svg PUBLIC "-//W3C//DTD SVG 20010904//EN"
 "http://www.w3.org/TR/2001/REC-SVG-20010904/DTD/svg10.dtd">
<svg version="1.0" xmlns="http://www.w3.org/2000/svg"
 width="800.000000pt" height="517.000000pt" viewBox="0 0 800.000000 517.000000"
 preserveAspectRatio="xMidYMid meet">

<g transform="translate(0.000000,517.000000) scale(0.100000,-0.100000)"
fill="#000000" stroke="none">
<path d="M0 2585 l0 -2585 4000 0 4000 0 0 2585 0 2585 -4000 0 -4000 0 0
-2585z m4765 1229 c66 -31 65 -25 65 -601 0 -502 -1 -519 -20 -551 -36 -59
-55 -62 -400 -62 -241 0 -310 -3 -310 -12 1 -7 11 -56 24 -108 l23 -95 61 -5
c45 -4 67 -11 86 -29 34 -32 41 -72 21 -111 -30 -57 -55 -61 -357 -58 l-270 3
-29 33 c-16 18 -29 43 -29 57 0 68 45 105 129 105 l49 0 22 93 c11 50 23 100
26 109 5 16 -20 17 -323 20 -354 3 -354 3 -387 59 -14 24 -16 87 -16 559 0
356 4 538 11 551 5 11 25 29 42 39 31 19 57 20 790 20 671 0 763 -2 792 -16z
m-2457 -2172 l2 -283 -57 3 -58 3 -3 270 c-1 148 0 276 3 283 3 9 21 12 57 10
l53 -3 3 -283z m207 3 l0 -280 -57 -3 -58 -3 0 286 0 286 58 -3 57 -3 0 -280z
m-407 266 c9 -5 12 -25 10 -62 l-3 -54 -97 -3 -98 -3 0 -44 0 -44 88 -3 87 -3
0 -55 0 -55 -87 -3 -88 -3 0 -49 0 -50 100 0 100 0 0 -60 0 -60 -162 2 -163 3
-3 272 c-2 253 -1 272 15 276 34 7 288 6 301 -2z m605 0 c4 -1 7 -25 5 -53
l-3 -53 -48 -3 c-41 -3 -48 0 -55 20 -12 32 -8 78 7 87 10 6 54 7 94 2z m924
-2 c12 -12 5 -144 -9 -171 -9 -19 -44 -24 -65 -10 -7 4 -15 44 -19 91 -6 66
-4 85 7 92 19 12 73 11 86 -2z m1021 -19 c222 -96 209 -440 -19 -515 -34 -12
-81 -15 -185 -13 l-139 3 -3 272 c-2 252 -1 272 15 277 10 3 77 4 148 2 110
-2 138 -6 183 -26z m610 21 c9 -5 12 -25 10 -57 l-3 -49 -55 0 -55 0 -3 49
c-4 56 5 66 58 66 19 0 41 -4 48 -9z m-1838 -91 c0 -46 3 -60 15 -61 8 -1 21
-2 28 -3 8 -1 13 -22 15 -58 l3 -58 -30 0 -30 0 -3 -137 -3 -138 -55 0 -55 0
-3 137 -3 137 -27 3 c-25 3 -27 7 -30 56 -3 51 -2 52 27 58 30 6 31 8 31 65
l0 59 60 0 60 0 0 -60z m-375 -61 c169 -43 209 -269 66 -373 -39 -28 -50 -31
-121 -31 -72 0 -81 2 -117 31 -52 42 -81 87 -89 141 -12 82 32 175 99 210 66
34 98 38 162 22z m878 -3 c50 -18 74 -41 88 -83 9 -29 9 -37 -2 -45 -21 -14
-98 -3 -113 17 -16 22 -70 17 -74 -7 -2 -12 8 -20 40 -28 98 -27 130 -42 149
-74 37 -61 12 -136 -55 -167 -54 -24 -141 -25 -186 -1 -39 21 -77 80 -67 105
10 26 97 23 120 -3 20 -23 59 -26 77 -5 18 22 6 31 -70 50 -103 25 -141 70
-126 148 8 41 41 74 93 92 48 18 78 18 126 1z m2098 -1 c24 -9 54 -26 67 -38
46 -42 78 -133 66 -183 -6 -24 -7 -24 -145 -24 -76 0 -139 -3 -139 -7 0 -4 10
-17 22 -30 26 -27 77 -31 131 -8 20 8 51 13 69 11 18 -3 36 -5 41 -5 31 -3
-51 -96 -100 -112 -52 -17 -154 -6 -197 21 -71 43 -112 156 -86 236 24 74 73
121 150 145 40 12 74 10 121 -6z m-3313 -198 l2 -198 -57 3 -58 3 -3 185 c-3
209 -2 210 71 206 l42 -2 3 -197z m2286 177 c9 -20 9 -20 32 3 13 13 35 23 49
23 25 0 26 -1 23 -62 -3 -60 -4 -62 -34 -70 -55 -14 -63 -32 -66 -153 l-3
-110 -57 -3 -58 -3 0 194 c0 106 3 197 7 201 4 4 28 6 53 4 34 -2 47 -8 54
-24z m260 20 c14 -5 16 -32 16 -201 l0 -194 -57 3 -58 3 -3 189 c-2 145 1 191
10 198 15 9 70 11 92 2z m183 -6 c4 -7 24 -62 44 -123 l35 -110 37 116 c38
122 44 129 100 129 65 0 65 -4 2 -182 -82 -232 -74 -220 -143 -216 l-57 3 -68
185 c-37 101 -65 190 -63 197 7 17 102 17 113 1z"/>
<path d="M3190 3770 c-19 -19 -20 -33 -20 -460 l0 -440 810 0 810 0 0 434 c0
423 0 434 -21 460 l-20 26 -770 0 c-756 0 -769 0 -789 -20z m1382 -120 c26
-27 30 -36 25 -68 -8 -49 -40 -74 -90 -70 -39 2 -41 1 -192 -162 -132 -140
-152 -166 -144 -182 13 -24 3 -71 -20 -92 -9 -9 -31 -19 -49 -22 -26 -5 -36
-1 -63 25 -28 29 -31 36 -26 74 6 42 5 43 -81 136 -86 92 -87 93 -115 80 -21
-9 -36 -10 -56 -2 -27 10 -31 7 -137 -123 -80 -98 -108 -140 -106 -156 9 -60
5 -90 -16 -110 -30 -30 -84 -29 -117 2 -53 50 -16 140 57 140 30 0 43 12 148
141 104 127 115 144 116 181 0 32 6 46 28 64 55 48 136 16 136 -54 0 -32 11
-49 91 -137 l91 -100 44 4 c43 3 49 8 193 161 l149 158 -5 44 c-5 40 -2 47 27
71 42 35 74 34 112 -3z"/>
<path d="M4482 3628 c-21 -21 -15 -68 11 -77 46 -18 86 38 52 73 -19 19 -46
21 -63 4z"/>
<path d="M3751 3476 c-20 -23 -5 -65 24 -72 35 -9 57 12 53 50 -3 27 -7 31
-34 34 -19 2 -36 -3 -43 -12z"/>
<path d="M4062 3168 c-7 -7 -12 -21 -12 -33 0 -12 5 -26 12 -33 7 -7 21 -12
33 -12 12 0 26 5 33 12 7 7 12 21 12 33 0 12 -5 26 -12 33 -7 7 -21 12 -33 12
-12 0 -26 -5 -33 -12z"/>
<path d="M3400 3059 c-14 -26 11 -69 40 -69 39 0 65 51 38 78 -20 20 -66 15
-78 -9z"/>
<path d="M3169 2793 c-3 -96 -1 -108 26 -130 l26 -23 760 0 760 0 24 25 c22
21 25 33 25 95 l0 70 -810 0 -810 0 -1 -37z m899 -29 c25 -7 29 -29 6 -38 -9
-3 -55 -6 -104 -6 -63 0 -91 4 -99 14 -10 11 -8 17 6 25 19 11 154 15 191 5z"/>
<path d="M3891 2563 c-12 -45 -41 -172 -41 -179 0 -2 59 -4 131 -4 119 0 130
1 126 18 -3 9 -15 59 -27 110 l-22 92 -79 0 -78 0 -10 -37z"/>
<path d="M3686 2324 c-24 -23 -20 -70 6 -88 19 -14 64 -16 290 -16 255 0 269
1 288 20 24 24 25 48 4 78 -15 22 -17 22 -294 22 -240 0 -281 -2 -294 -16z"/>
<path d="M4440 1635 l0 -155 68 0 c126 1 185 50 185 155 0 108 -53 155 -175
155 l-78 0 0 -155z"/>
<path d="M2939 1621 c-65 -66 -8 -171 84 -154 35 7 67 47 67 84 0 90 -89 131
-151 70z"/>
<path d="M5906 1639 c-14 -11 -26 -25 -26 -30 0 -5 36 -9 80 -9 84 0 94 6 60
40 -26 26 -80 26 -114 -1z"/>
</g>
</svg>
