<?xml version="1.0" standalone="no"?>
<!DOCTYPE svg PUBLIC "-//W3C//DTD SVG 20010904//EN"
 "http://www.w3.org/TR/2001/REC-SVG-20010904/DTD/svg10.dtd">
<svg version="1.0" xmlns="http://www.w3.org/2000/svg"
 width="690.000000pt" height="421.000000pt" viewBox="0 0 690.000000 421.000000"
 preserveAspectRatio="xMidYMid meet">

<g transform="translate(0.000000,421.000000) scale(0.100000,-0.100000)"
fill="#000000" stroke="none">
<path d="M2290 2693 c-15 -3 -75 -162 -65 -171 2 -2 36 8 74 23 80 30 84 39
51 113 -18 40 -26 45 -60 35z"/>
<path d="M2155 2643 c-38 -15 -41 -19 -66 -100 -27 -83 -27 -84 -5 -77 75 23
80 28 108 112 28 89 28 90 -37 65z"/>
<path d="M1995 2581 c-37 -17 -42 -23 -67 -100 -26 -80 -26 -82 -6 -75 78 24
86 31 109 101 12 38 24 74 27 81 6 17 -16 15 -63 -7z"/>
<path d="M1850 2530 c-43 -16 -46 -21 -72 -91 -36 -100 -36 -100 20 -79 46 17
48 19 75 96 15 42 26 81 25 85 -2 4 -23 -1 -48 -11z"/>
<path d="M1690 2471 c-44 -17 -46 -21 -72 -97 -15 -43 -27 -82 -27 -85 -1 -3
38 -36 85 -73 86 -65 88 -66 150 -66 35 0 64 2 64 4 0 3 -28 26 -62 52 -35 26
-68 53 -74 60 -6 8 -39 14 -85 16 l-74 3 50 18 50 17 26 85 c15 47 24 85 20
84 -3 0 -26 -8 -51 -18z"/>
<path d="M1540 2412 c-21 -17 -22 -21 -10 -56 14 -44 21 -39 43 27 18 53 8 62
-33 29z"/>
<path d="M2860 2180 c0 -173 1 -180 20 -180 19 0 20 7 20 180 0 173 -1 180
-20 180 -19 0 -20 -7 -20 -180z"/>
<path d="M2970 2180 c0 -173 1 -180 20 -180 19 0 20 7 20 180 0 173 -1 180
-20 180 -19 0 -20 -7 -20 -180z"/>
<path d="M2570 2170 l0 -170 115 0 c108 0 115 1 115 20 0 19 -7 20 -90 20
l-90 0 0 55 0 55 80 0 c73 0 80 2 80 20 0 18 -7 20 -80 20 l-80 0 0 55 0 55
85 0 c78 0 85 2 85 20 0 19 -7 20 -110 20 l-110 0 0 -170z"/>
<path d="M3090 2325 c-18 -21 -5 -47 22 -43 26 3 37 36 16 49 -18 12 -24 11
-38 -6z"/>
<path d="M3680 2280 c0 -47 3 -60 15 -60 12 0 15 13 15 60 0 47 -3 60 -15 60
-12 0 -15 -13 -15 -60z"/>
<path d="M4140 2171 l0 -171 83 0 c107 0 160 25 194 90 29 55 29 105 0 160
-32 61 -78 83 -189 88 l-88 4 0 -171z m197 103 c36 -23 56 -71 50 -121 -8 -72
-62 -113 -152 -113 l-45 0 0 131 0 132 63 -7 c34 -4 72 -14 84 -22z"/>
<path d="M4677 2333 c-4 -3 -7 -17 -7 -30 0 -18 6 -23 24 -23 13 0 27 7 30 16
11 28 -27 57 -47 37z"/>
<path d="M3500 2255 c0 -31 -3 -35 -25 -35 -16 0 -25 -6 -25 -15 0 -9 9 -15
25 -15 24 0 25 -2 25 -76 0 -41 4 -84 10 -94 20 -37 100 -36 100 1 0 16 -5 18
-25 13 -21 -5 -26 -1 -35 22 -6 15 -10 51 -8 78 3 47 5 51 31 54 15 2 27 9 27
17 0 8 -12 15 -27 17 -23 2 -29 8 -31 36 -2 24 -8 32 -23 32 -15 0 -19 -7 -19
-35z"/>
<path d="M1894 2215 l86 -66 65 3 64 3 -80 63 -79 62 -72 0 -71 0 87 -65z"/>
<path d="M2036 2271 c5 -6 42 -35 83 -65 72 -54 77 -56 138 -56 35 0 63 2 63
3 0 2 -36 31 -79 65 -80 62 -80 62 -147 62 -43 0 -64 -4 -58 -9z"/>
<path d="M2246 2271 c33 -30 163 -121 172 -121 16 0 16 102 0 118 -7 7 -44 12
-97 12 -48 0 -81 -4 -75 -9z"/>
<path d="M1550 2200 l0 -50 68 0 67 0 -25 21 c-14 11 -44 33 -67 50 l-43 30 0
-51z"/>
<path d="M3252 2213 c-91 -44 -76 -180 23 -213 46 -15 103 6 132 49 27 40 29
71 8 115 -29 61 -98 82 -163 49z m108 -43 c31 -31 27 -93 -6 -119 -35 -27 -57
-26 -90 3 -56 47 -25 136 47 136 16 0 38 -9 49 -20z"/>
<path d="M3817 2214 c-24 -13 -28 -20 -25 -52 3 -37 3 -37 87 -76 34 -15 37
-34 8 -47 -19 -9 -31 -8 -55 5 -26 13 -32 14 -42 1 -16 -20 -6 -33 37 -44 69
-19 123 10 123 65 0 37 -6 43 -70 64 -47 16 -65 45 -34 57 9 3 30 2 45 -4 21
-8 32 -8 45 1 16 12 15 14 -7 29 -29 21 -75 21 -112 1z"/>
<path d="M4562 2214 c-12 -8 -22 -10 -22 -5 0 6 -9 11 -20 11 -19 0 -20 -7
-20 -110 0 -103 1 -110 20 -110 18 0 20 7 20 73 0 82 12 108 53 110 21 2 27 7
27 25 0 26 -25 29 -58 6z"/>
<path d="M5085 2220 c-11 -4 -31 -20 -44 -34 -30 -32 -33 -101 -7 -141 35 -53
115 -65 174 -27 20 13 21 17 9 30 -13 13 -18 12 -38 -2 -33 -23 -72 -20 -97 7
-39 41 -30 47 69 47 l92 0 -6 38 c-12 70 -85 110 -152 82z m83 -36 c12 -8 22
-24 22 -35 0 -17 -7 -19 -65 -19 -73 0 -84 14 -39 49 32 25 52 26 82 5z"/>
<path d="M3090 2110 c0 -103 1 -110 20 -110 19 0 20 7 20 110 0 103 -1 110
-20 110 -19 0 -20 -7 -20 -110z"/>
<path d="M4680 2110 c0 -103 1 -110 20 -110 19 0 20 7 20 110 0 103 -1 110
-20 110 -19 0 -20 -7 -20 -110z"/>
<path d="M4801 2123 c22 -54 43 -104 46 -111 3 -7 17 -12 30 -10 21 3 30 18
64 103 21 55 39 103 39 108 0 4 -9 7 -19 7 -15 0 -26 -17 -47 -72 -15 -40 -31
-77 -34 -81 -4 -4 -20 27 -37 70 -26 67 -34 78 -56 81 l-26 3 40 -98z"/>
<path d="M1560 2102 c-15 -5 -13 -345 2 -360 17 -17 839 -17 856 0 8 8 12 64
12 185 l0 173 -430 2 c-237 2 -435 2 -440 0z"/>
</g>
</svg>
