<?xml version="1.0" standalone="no"?>
<!DOCTYPE svg PUBLIC "-//W3C//DTD SVG 20010904//EN"
 "http://www.w3.org/TR/2001/REC-SVG-20010904/DTD/svg10.dtd">
<svg version="1.0" xmlns="http://www.w3.org/2000/svg"
 width="381.000000pt" height="155.000000pt" viewBox="0 0 381.000000 155.000000"
 preserveAspectRatio="xMidYMid meet">

<g transform="translate(0.000000,155.000000) scale(0.100000,-0.100000)"
fill="#000000" stroke="none">
<path d="M45 1255 l-25 -24 0 -376 0 -376 25 -24 24 -25 231 0 230 0 -6 -25
c-3 -13 -11 -48 -18 -77 l-11 -53 -47 -3 c-35 -2 -52 -9 -63 -25 -21 -30 -19
-63 5 -87 19 -19 33 -20 220 -20 187 0 201 1 220 20 24 24 26 57 5 87 -11 16
-28 23 -62 25 l-46 3 -18 75 c-10 41 -18 76 -19 78 0 1 104 2 230 2 l231 0 24
26 25 27 0 374 0 374 -25 24 -24 25 -541 0 -541 0 -24 -25z m1110 -20 l25 -24
-2 -298 -3 -298 -565 0 -565 0 -3 298 -2 298 24 24 24 24 522 1 521 0 24 -25z
m23 -697 c-10 -94 28 -89 -575 -86 l-525 3 -19 24 c-12 15 -19 39 -19 67 l0
44 571 0 572 0 -5 -52z m-499 -165 c7 -32 15 -68 18 -80 5 -23 3 -23 -87 -23
-91 0 -92 0 -86 23 3 12 11 48 17 80 l12 57 57 0 57 0 12 -57z m135 -142 c21
-23 12 -49 -22 -62 -14 -5 -101 -9 -194 -8 -153 1 -172 3 -189 20 -23 23 -24
33 -3 53 13 13 46 16 203 16 170 0 189 -2 205 -19z"/>
<path d="M936 1148 c-9 -12 -13 -31 -10 -45 5 -18 -13 -43 -100 -135 -132
-141 -139 -143 -227 -45 -32 36 -59 74 -59 84 0 10 -7 29 -16 41 -31 44 -104
17 -104 -39 0 -34 -148 -218 -175 -219 -58 -1 -84 -61 -44 -101 26 -26 57 -21
82 13 17 22 18 32 10 51 -10 21 -3 33 67 116 74 90 79 94 119 95 40 1 47 -3
102 -61 52 -54 58 -65 53 -91 -7 -34 22 -72 56 -72 33 0 63 38 56 71 -5 26 5
40 97 136 79 84 109 109 132 111 38 4 65 28 65 58 0 52 -74 75 -104 32z m73
-17 c15 -27 -11 -60 -36 -45 -23 14 -29 44 -11 55 21 14 37 10 47 -10z m-515
-87 c20 -8 21 -38 1 -54 -21 -17 -45 -5 -45 23 0 35 12 43 44 31z m221 -244
c0 -18 -6 -26 -23 -28 -24 -4 -38 18 -28 44 3 9 15 14 28 12 17 -2 23 -10 23
-28z m-450 -70 c0 -30 -35 -40 -55 -15 -10 12 -10 18 0 30 20 25 55 15 55 -15z"/>
<path d="M530 530 c0 -6 33 -10 80 -10 47 0 80 4 80 10 0 6 -33 10 -80 10 -47
0 -80 -4 -80 -10z"/>
<path d="M1440 705 l0 -135 70 0 c63 0 70 2 70 20 0 17 -7 20 -50 20 l-50 0 0
40 c0 39 1 40 35 40 24 0 35 5 35 15 0 10 -11 15 -35 15 -34 0 -35 1 -35 40
l0 40 50 0 c43 0 50 3 50 20 0 18 -7 20 -70 20 l-70 0 0 -135z"/>
<path d="M1610 705 l0 -135 70 0 c63 0 70 2 70 20 0 17 -7 20 -50 20 l-50 0 0
115 c0 108 -1 115 -20 115 -19 0 -20 -7 -20 -135z"/>
<path d="M1780 705 l0 -135 70 0 c63 0 70 2 70 20 0 17 -7 20 -50 20 l-50 0 0
115 c0 108 -1 115 -20 115 -19 0 -20 -7 -20 -135z"/>
<path d="M1960 705 c0 -128 1 -135 20 -135 19 0 20 7 20 135 0 128 -1 135 -20
135 -19 0 -20 -7 -20 -135z"/>
<path d="M2095 820 c-115 -76 -65 -250 73 -250 24 0 55 6 70 14 31 16 72 83
72 117 0 37 -37 103 -69 122 -39 23 -108 22 -146 -3z m140 -44 c32 -32 40 -69
25 -107 -26 -62 -104 -80 -157 -35 -23 20 -28 32 -28 71 0 39 5 51 28 71 39
33 99 33 132 0z"/>
<path d="M2310 820 c0 -16 7 -20 30 -20 l30 0 0 -115 c0 -108 1 -115 20 -115
19 0 20 7 20 115 l0 115 25 0 c18 0 25 5 25 20 0 18 -7 20 -75 20 -68 0 -75
-2 -75 -20z"/>
<path d="M2493 824 c-4 -10 0 -22 9 -28 8 -6 13 -18 10 -26 -5 -13 -3 -13 11
-1 10 7 17 26 17 42 0 22 -5 29 -20 29 -11 0 -23 -7 -27 -16z"/>
<path d="M2592 817 c-32 -34 -29 -81 6 -105 15 -11 38 -23 52 -27 41 -12 61
-35 49 -56 -11 -22 -59 -25 -89 -7 -16 10 -22 10 -32 0 -20 -20 25 -52 72 -52
53 0 68 8 86 42 12 24 13 33 2 55 -13 26 -28 37 -93 65 -22 10 -30 20 -30 38
0 23 4 25 45 25 59 1 80 13 55 32 -31 22 -98 17 -123 -10z"/>
<path d="M2880 705 l0 -135 50 0 c94 0 150 49 150 132 0 87 -55 138 -150 138
l-50 0 0 -135z m131 67 c25 -22 31 -36 31 -67 0 -31 -6 -45 -31 -67 -19 -17
-43 -28 -61 -28 l-30 0 0 95 0 95 30 0 c18 0 42 -11 61 -28z"/>
<path d="M3120 705 c0 -128 1 -135 20 -135 18 0 20 7 20 55 0 52 1 55 25 55
21 0 30 -10 52 -55 21 -43 32 -55 50 -55 l23 0 -29 59 c-29 57 -30 59 -11 76
27 24 33 61 16 94 -19 36 -33 41 -107 41 l-59 0 0 -135z m128 83 c29 -29 -2
-68 -54 -68 -33 0 -34 1 -34 40 0 40 0 40 38 40 21 0 43 -5 50 -12z"/>
<path d="M3340 705 c0 -128 1 -135 20 -135 19 0 20 7 20 135 0 128 -1 135 -20
135 -19 0 -20 -7 -20 -135z"/>
<path d="M3420 705 l0 -135 28 0 c25 0 35 13 105 132 71 122 79 149 44 135 -8
-3 -40 -49 -73 -103 l-59 -99 -3 103 c-2 94 -4 102 -22 102 -19 0 -20 -7 -20
-135z"/>
<path d="M3660 705 l0 -135 70 0 c63 0 70 2 70 20 0 17 -7 20 -51 20 l-50 0 3
38 c3 35 5 37 41 40 23 2 37 8 37 17 0 9 -14 15 -37 17 -36 3 -38 5 -41 41
l-3 37 50 0 c44 0 51 3 51 20 0 18 -7 20 -70 20 l-70 0 0 -135z"/>
</g>
</svg>
